<svg width="29" height="27" viewBox="0 0 29 27" fill="none" xmlns="http://www.w3.org/2000/svg">
<g id="home-03">
<path id="Icon" d="M10.875 23.625V15.3C10.875 14.6699 10.875 14.3549 11.0067 14.1143C11.1225 13.9026 11.3074 13.7305 11.5347 13.6226C11.7932 13.5 12.1316 13.5 12.8083 13.5H16.1916C16.8684 13.5 17.2067 13.5 17.4652 13.6226C17.6926 13.7305 17.8774 13.9026 17.9933 14.1143C18.125 14.3549 18.125 14.6699 18.125 15.3V23.625M2.41663 10.6875L13.34 3.06C13.7559 2.76953 13.9639 2.6243 14.1924 2.56831C14.394 2.5189 14.6059 2.5189 14.8076 2.56831C15.036 2.6243 15.244 2.76953 15.66 3.06L26.5833 10.6875M4.8333 9V20.025C4.8333 21.2851 4.8333 21.9152 5.0967 22.3965C5.32839 22.8198 5.6981 23.164 6.15282 23.3798C6.66977 23.625 7.3465 23.625 8.69996 23.625H20.3C21.6534 23.625 22.3302 23.625 22.8471 23.3798C23.3018 23.164 23.6715 22.8198 23.9032 22.3965C24.1666 21.9152 24.1666 21.2851 24.1666 20.025V9L16.82 3.87C15.988 3.28906 15.572 2.9986 15.1152 2.88663C14.7119 2.78779 14.288 2.78779 13.8848 2.88663C13.4279 2.9986 13.0119 3.28906 12.18 3.87L4.8333 9Z" stroke="black" stroke-width="2" stroke-linecap="round" stroke-linejoin="round"/>
</g>
</svg>
