<svg width="78" height="12" viewBox="0 0 78 12" fill="none" xmlns="http://www.w3.org/2000/svg">
<g id="Rectangle 4236">
<path d="M0 6C0 2.68629 2.68629 0 6 0H26.6643C29.978 0 32.6643 2.68629 32.6643 6C32.6643 9.31371 29.978 12 26.6643 12H6C2.68629 12 0 9.31371 0 6Z" fill="#090808" fill-opacity="0.54"/>
<path d="M45.3357 5.71429C45.3357 2.55837 47.8572 0 50.9675 0H72.3682C75.4786 0 78 2.55837 78 5.71429V6.28572C78 9.44163 75.4786 12 72.3682 12H50.9675C47.8572 12 45.3357 9.44163 45.3357 6.28572V5.71429Z" fill="#090808" fill-opacity="0.54"/>
</g>
</svg>
